<svg xmlns="http://www.w3.org/2000/svg" viewBox="0 0 333333 333333" shape-rendering="geometricPrecision" text-rendering="geometricPrecision" image-rendering="optimizeQuality" fill-rule="evenodd" clip-rule="evenodd"><path d="M152229 248889c-5304 0-9605-4300-9605-9605 0-5304 4300-9605 9605-9605h53857c5304 0 9605 4301 9605 9605s-4301 9605-9605 9605h-53857zm-81844-9513c-2179-3253-1308-7657 1945-9835 3253-2179 7657-1308 9835 1945l3861 5741 15331-18652c2486-3023 6952-3458 9975-972s3458 6952 972 9975l-21213 25808c-460 602-1026 1141-1690 1586-3253 2179-7657 1308-9835-1945l-9181-13649zm0-67560c-2179-3253-1308-7657 1945-9835 3253-2179 7657-1308 9835 1945l3861 5740 15331-18652c2486-3023 6952-3458 9975-972s3458 6952 972 9975l-21213 25808c-460 602-1026 1140-1690 1585-3253 2179-7657 1308-9835-1945l-9181-13649zm0-67558c-2179-3253-1308-7657 1945-9835 3253-2179 7657-1308 9835 1945l3861 5740 15331-18654c2486-3023 6952-3458 9975-972s3458 6952 972 9975l-21213 25810c-460 602-1026 1141-1690 1586-3253 2179-7657 1308-9835-1945l-9181-13649zm81844 1605c-5304 0-9605-4301-9605-9605s4300-9605 9605-9605h98429c5304 0 9605 4301 9605 9605s-4300 9605-9605 9605h-98429zM29653 0h274026c6165 0 11756 2509 15770 6523s6522 9605 6522 15769v288749c0 6164-2509 11755-6522 15769-4014 4014-9605 6523-15770 6523H29653c-6165 0-11756-2509-15770-6523-4014-4013-6522-9605-6522-15769V22292c0-6164 2509-11756 6522-15769C17897 2509 23488 0 29653 0zm274026 19210H29653c-860 0-1649 358-2222 932s-931 1362-931 2222v288749c0 860 358 1648 931 2222 574 573 1362 932 2222 932h274026c860 0 1649-359 2222-932 573-574 931-1362 931-2222V22364c0-860-358-1648-931-2222-574-574-1362-932-2222-932zM152229 177376c-5304 0-9605-4301-9605-9605s4300-9605 9605-9605h98429c5304 0 9605 4300 9605 9605 0 5304-4300 9605-9605 9605h-98429z" fill-rule="nonzero"/></svg>