<svg xmlns="http://www.w3.org/2000/svg" viewBox="0 0 333333 333333" shape-rendering="geometricPrecision" text-rendering="geometricPrecision" image-rendering="optimizeQuality" fill-rule="evenodd" clip-rule="evenodd"><path d="M4367 263631l14586-14586c383-383 783-741 1196-1074L9675 237497c-156-156-302-317-439-483-2609-2839-3916-6450-3916-10050 0-3797 1452-7605 4354-10508l13-13-13-13 14586-14586c383-383 783-741 1196-1073l-10475-10475c-2902-2902-4354-6720-4354-10533 0-3797 1452-7605 4354-10508l13-13-13-13 14587-14587c2902-2902 6721-4354 10533-4354 3813 0 7631 1452 10534 4354l128071 128070c2902 2903 4353 6721 4353 10534s-1451 7631-4353 10533l-14587 14587c-156 156-317 302-483 439-2839 2609-6450 3915-10050 3915-3797 0-7605-1452-10508-4354l-13-13-13 13-8874-8874c-330 408-683 803-1063 1182l-13 13 13 13-14586 14586c-156 157-319 304-487 441-2822 2588-6433 3885-10045 3885-3812 0-7623-1441-10509-4327l-13-13-13 13-12086-12086c-333 414-691 813-1074 1197l-14586 14586c-2898 2898-6720 4352-10535 4352-3811 0-7631-1450-10533-4352L4366 284699c-2903-2903-4355-6721-4355-10534s1452-7631 4355-10534zM178639 24369l-14586 14586-138 134c-213 285-321 640-321 1001 0 417 154 829 459 1135l128070 128070c306 305 719 459 1135 459 417 0 830-154 1135-459l14586-14587 138-133c213-285 321-639 321-1001 0-426-150-843-446-1148l-13 13-19335-19335-87788-87788-20947-20947c-306-306-718-459-1135-459-426 0-843 149-1148 446l13 13zm15239 103954c3645-3644 9555-3644 13200 0 3644 3645 3644 9555 0 13200l-63993 63992c-3645 3644-9555 3644-13200 0-3644-3645-3644-9555 0-13200l63993-63992zm79165-114571l-14586 14586c-322 322-482 735-482 1137 0 341 108 684 323 974l159 159 44282 44283 12 13 135 135c281 204 630 306 988 306 420 0 833-152 1135-454l14586-14586c321-321 482-731 482-1132 0-414-156-830-469-1150l-13 13-44283-44282-1-1c-306-306-717-458-1134-458s-829 153-1134 458l-1 1zm-23985 5188l14586-14586 1-1C266547 1450 270365-1 274178-1c3812 0 7630 1451 10533 4354l1 1 44283 44282-13 13 13 13c2886 2887 4327 6699 4325 10511-1 3830-1445 7650-4325 10530l-14586 14587c-383 383-783 741-1197 1074l12086 12086c2902 2902 4353 6721 4353 10533 0 3814-1452 7633-4353 10534l-14586 14586-13-13-13 13c-379 379-774 733-1182 1062l8874 8874-13 13 13 13c2902 2903 4354 6711 4354 10507 0 3600-1306 7211-3915 10050-137 167-283 328-439 483l-14586 14586c-2902 2902-6721 4354-10533 4354-3813 0-7631-1452-10534-4354L154655 50621c-2902-2902-4354-6720-4354-10533 0-3600 1305-7209 3914-10048 137-167 283-329 439-485l14586-14586 13 13 13-13c2902-2902 6711-4354 10507-4354 3813 0 7631 1452 10533 4354l10474 10474c333-414 691-813 1074-1196l14587-14586c2902-2903 6721-4355 10533-4355 3813 0 7631 1452 10534 4355l10476 10475c332-414 689-814 1073-1197zm-23218 120l-14586 14586c-305 305-458 718-458 1135 0 411 148 818 444 1121l14 15 87788 87787c304 304 717 456 1135 456 428 0 844-148 1147-443l-13-13 14586-14586c305-305 458-717 458-1135 0-417-153-830-458-1134l-22529-22530-7-7-7-7-7-7-7-7-65230-65230c-306-306-719-459-1135-459-417 0-829 153-1135 459zM45328 201842l87788 87788 7 7 7 7 7 7 7 7 7 8 7 7 7 7 19285 19285-13 13c305 297 721 446 1148 446 362 0 716-107 1001-321l134-138 14587-14587c306-305 459-718 459-1135s-153-830-459-1135L41237 164037c-306-306-719-459-1135-459-417 0-829 153-1135 459l-14587 14587-13-13c-297 304-446 721-446 1148 0 417 154 829 459 1135l20946 20946zm78539 97336l-149-149-87788-87788-162-162c-290-214-632-322-972-322-401 0-814 161-1136 484l-14586 14587-13-13c-297 305-446 721-446 1148 0 361 107 715 320 1000l139 135 20947 20947 44283 44283 22558 22558-13 13c321 314 737 471 1149 471 348 0 698-113 992-338l142-146 14586-14586 13 13c295-303 443-720 443-1148 0-356-103-704-307-986zm-95516-40735l-14586 14586c-306 306-459 719-459 1135 0 417 153 829 459 1135l44282 44283c304 304 717 456 1135 456 419 0 832-152 1136-456l14586-14587c302-302 454-715 454-1135s-152-833-454-1135l-44283-44283-15-14c-302-295-709-443-1121-443-418 0-830 152-1135 457z" fill-rule="nonzero"/></svg>