<svg xmlns="http://www.w3.org/2000/svg" viewBox="0 0 285616 333333" shape-rendering="geometricPrecision" text-rendering="geometricPrecision" image-rendering="optimizeQuality" fill-rule="evenodd" clip-rule="evenodd"><path d="M30112 333333h225379c14574 0 33153-18755 29707-32916l-37822-155401c-8201-33696-19634-52134-57015-52134h-28800c17205-7425 29250-24539 29250-44469C190811 21675 169136 0 142398 0S93985 21675 93985 48413c0 19930 12044 37044 29250 44469H97872c-37239 0-52891 20952-60562 53060L405 300417c-3384 14165 15133 32916 29707 32916zm71061-138969h12055v15478l12646-15478h16046l-14255 15392 14910 25578h-14846l-8237-16823-6264 6848v9976h-12055v-40971zm62347 26150v-8526h18655v17424c-3573 2556-6728 4301-9465 5226-2745 925-6000 1383-9764 1383-4636 0-8418-830-11337-2489-2918-1650-5182-4120-6791-7401-1609-3271-2409-7038-2409-11282 0-4473 882-8354 2636-11664 1755-3300 4328-5808 7718-7525 2646-1326 6209-1983 10682-1983 4309 0 7537 410 9673 1230 2146 820 3919 2089 5328 3815s2473 3910 3182 6552l-11618 2193c-482-1554-1291-2746-2437-3567-1145-830-2600-1240-4382-1240-2637 0-4746 963-6318 2889-1573 1927-2355 4978-2355 9146 0 4425 791 7592 2382 9489 1582 1898 3800 2852 6637 2852 1346 0 2628-200 3855-610 1218-410 2619-1106 4200-2079v-3834h-8073zm-20711-76450c38646 0 69974 31328 69974 69974s-31328 69974-69974 69974c-38645 0-69974-31328-69974-69974 0-38645 31328-69974 69974-69974zm-410-115822c11140 0 20171 9031 20171 20171s-9031 20171-20171 20171-20171-9031-20171-20171 9031-20171 20171-20171z"/></svg>