<svg xmlns="http://www.w3.org/2000/svg" viewBox="0 0 1333.34 1122.61" shape-rendering="geometricPrecision" text-rendering="geometricPrecision" image-rendering="optimizeQuality" fill-rule="evenodd" clip-rule="evenodd"><path d="M925.31 198.65c105.8 12.65 200.66 60.92 272.23 132.49 83.91 83.91 135.8 199.81 135.8 327.84 0 128.02-51.9 243.93-135.8 327.84-83.9 83.9-199.81 135.8-327.83 135.8-128.02 0-243.94-51.9-327.84-135.8-83.91-83.91-135.8-199.81-135.8-327.84 0-128.02 51.9-243.93 135.8-327.84 76.86-76.86 180.58-126.85 295.86-134.7v-77.77c0-1.18.05-2.35.14-3.5h-86.84c-14.24 0-25.89-11.65-25.89-25.89V25.91c0-14.24 11.65-25.89 25.89-25.89h260.98c14.24 0 25.89 11.65 25.89 25.89v63.37c0 14.24-11.65 25.89-25.89 25.89h-86.84c.09 1.16.14 2.32.14 3.5v79.99zM906.92 589.7c24.65 13.28 41.41 39.32 41.41 69.28 0 43.43-35.2 78.63-78.63 78.63-43.43 0-78.63-35.2-78.63-78.63 0-29.96 16.76-56 41.41-69.28V409.54c0-20.56 16.67-37.22 37.22-37.22 20.56 0 37.22 16.67 37.22 37.22V589.7zM114.23 917.94c-20.56 0-37.22-16.67-37.22-37.22 0-20.56 16.67-37.22 37.22-37.22h210.26c20.56 0 37.22 16.67 37.22 37.22 0 20.56-16.67 37.22-37.22 37.22H114.23zM37.22 699.05C16.66 699.05 0 682.38 0 661.83c0-20.56 16.67-37.22 37.22-37.22h243.57c20.56 0 37.22 16.67 37.22 37.22 0 20.56-16.67 37.22-37.22 37.22H37.22zm75.13-213.21c-20.56 0-37.22-16.67-37.22-37.22 0-20.56 16.67-37.22 37.22-37.22H321c20.56 0 37.22 16.67 37.22 37.22 0 20.56-16.67 37.22-37.22 37.22H112.35zm1173.76-147.13c18-42.94 15.86-87.94-9.89-118.07-30.91-36.17-86.76-40.31-138.63-14.87 54.94 37.68 104.83 81.52 148.52 132.94zm-832.81 0c-18-42.94-15.86-87.94 9.89-118.07 30.91-36.17 86.76-40.31 138.64-14.87-54.94 37.68-104.84 81.52-148.52 132.94zm691.61 45.07c-70.43-70.43-167.73-113.99-275.2-113.99-107.48 0-204.78 43.56-275.21 113.99-70.43 70.43-113.99 167.73-113.99 275.2 0 107.48 43.56 204.78 113.99 275.2 70.43 70.43 167.73 113.99 275.21 113.99 107.48 0 204.78-43.56 275.2-113.99 70.43-70.43 113.99-167.73 113.99-275.2 0-107.48-43.56-204.78-113.99-275.2z" fill-rule="nonzero"/></svg>